<svg width="512" height="512" viewBox="0 0 512 512" fill="none" xmlns="http://www.w3.org/2000/svg">
<g clip-path="url(#clip0_101_4)">
<rect x="7.5" y="7.5" width="497" height="497" rx="103.5" fill="#970C64" stroke="white" stroke-width="15"/>
<path d="M154.544 385L102.144 137C101.077 131.4 102.277 126.333 105.744 121.8C109.21 117.267 113.877 115 119.744 115C126.144 115 131.877 117.133 136.944 121.4C142.01 125.4 145.077 130.6 146.144 137L185.744 358.6C185.744 358.867 185.877 359 186.144 359C186.41 359 186.544 358.867 186.544 358.6L226.144 137.4C227.477 131 230.544 125.667 235.344 121.4C240.41 117.133 246.277 115 252.944 115H263.344C270.01 115 275.877 117.133 280.944 121.4C286.01 125.667 289.077 131 290.144 137.4L329.744 358.6C329.744 358.867 329.877 359 330.144 359C330.41 359 330.544 358.867 330.544 358.6L370.144 136.2C371.21 130.067 374.144 125 378.944 121C384.01 117 389.61 115 395.744 115C401.344 115 405.877 117.267 409.344 121.8C413.077 126.067 414.277 130.867 412.944 136.2L360.144 385C358.81 391.4 355.477 396.733 350.144 401C345.077 405 339.21 407 332.544 407H324.144C317.477 407 311.61 404.867 306.544 400.6C301.744 396.333 298.677 391 297.344 384.6L257.744 163.4C257.744 163.133 257.61 163 257.344 163C257.077 163 256.944 163.133 256.944 163.4L217.344 384.6C216.277 391 213.21 396.333 208.144 400.6C203.077 404.867 197.21 407 190.544 407H182.144C175.477 407 169.477 405 164.144 401C159.077 396.733 155.877 391.4 154.544 385Z" fill="white"/>
</g>
<defs>
<clipPath id="clip0_101_4">
<rect width="512" height="512" fill="white"/>
</clipPath>
</defs>
</svg>
